<?xml version="1.0" standalone="no"?>
<!DOCTYPE svg PUBLIC "-//W3C//DTD SVG 20010904//EN"
 "http://www.w3.org/TR/2001/REC-SVG-20010904/DTD/svg10.dtd">
<svg version="1.0" xmlns="http://www.w3.org/2000/svg"
 width="225.000000pt" height="225.000000pt" viewBox="0 0 225.000000 225.000000"
 preserveAspectRatio="xMidYMid meet">
<metadata>
Created by potrace 1.14, written by Peter Selinger 2001-2017
</metadata>
<g transform="translate(0.000000,225.000000) scale(0.100000,-0.100000)"
fill="#000000" stroke="none">
<path d="M671 1857 c-19 -6 -44 -25 -55 -40 -21 -28 -21 -37 -24 -660 -2 -415
1 -644 7 -668 6 -19 22 -46 37 -60 l26 -24 469 -3 c407 -2 473 -1 499 13 60
31 60 27 60 547 l0 473 -24 50 c-31 67 -291 329 -356 359 -42 20 -65 21 -325
23 -201 2 -290 -1 -314 -10z m585 -53 c19 -5 20 -11 16 -112 -5 -129 7 -181
50 -217 30 -25 33 -26 167 -24 l135 1 9 -31 c4 -17 6 -233 5 -480 -2 -362 -6
-451 -17 -464 -12 -15 -58 -17 -477 -17 -407 0 -464 2 -478 16 -14 14 -16 87
-16 656 0 583 2 643 17 660 15 17 37 18 292 18 152 0 285 -3 297 -6z m211
-166 c68 -68 123 -126 123 -130 0 -5 -45 -8 -101 -8 -95 0 -135 9 -151 34 -10
14 -10 226 -1 226 4 0 63 -55 130 -122z"/>
<path d="M773 1485 c-3 -9 -1 -21 4 -26 5 -5 92 -8 209 -7 191 3 199 4 199 23
0 19 -8 20 -203 23 -177 2 -203 0 -209 -13z"/>
<path d="M780 1265 c-10 -12 -10 -18 0 -30 11 -13 63 -15 360 -15 297 0 349 2
360 15 10 12 10 18 0 30 -11 13 -63 15 -360 15 -297 0 -349 -2 -360 -15z"/>
<path d="M780 1015 c-10 -12 -10 -18 0 -30 11 -13 63 -15 360 -15 297 0 349 2
360 15 10 12 10 18 0 30 -11 13 -63 15 -360 15 -297 0 -349 -2 -360 -15z"/>
<path d="M780 775 c-9 -10 -10 -19 -3 -26 6 -6 146 -8 369 -7 351 3 359 3 359
23 0 20 -8 20 -356 23 -312 2 -358 0 -369 -13z"/>
</g>
</svg>
